<svg width="50" height="100" viewBox="0 0 50 100" fill="none" xmlns="http://www.w3.org/2000/svg">
<path d="M0 50C0 77.6142 0 50 0 100C27.6142 100 50 77.6142 50 50C50 22.3858 27.6142 0 0 0C0 50 0 22.3858 0 50Z" fill="#FF4538" fill-opacity="0.52"/>
<path fill-rule="evenodd" clip-rule="evenodd" d="M27.403 42.6528C27.7447 42.3111 27.7447 41.7571 27.403 41.4154C27.0613 41.0737 26.5072 41.0737 26.1655 41.4154L18.9092 48.6717L11.6529 41.4154C11.3112 41.0737 10.7572 41.0737 10.4155 41.4154C10.0738 41.7571 10.0738 42.3111 10.4155 42.6528L17.6718 49.9091L10.4155 57.1655C10.0738 57.5072 10.0738 58.0612 10.4155 58.4029C10.7572 58.7446 11.3112 58.7446 11.6529 58.4029L18.9092 51.1466L26.1655 58.4029C26.5072 58.7446 27.0613 58.7446 27.403 58.4029C27.7447 58.0612 27.7447 57.5072 27.403 57.1655L20.1467 49.9091L27.403 42.6528Z" fill="white" stroke="white" stroke-width="0.802086" stroke-linecap="round" stroke-linejoin="round"/>
</svg>
