<svg width="50" height="100" viewBox="0 0 50 100" fill="none" xmlns="http://www.w3.org/2000/svg">
<path d="M50 50C50 77.6142 50 50 50 100C22.3858 100 0 77.6142 0 50C0 22.3858 22.3858 0 50 0C50 50 50 22.3858 50 50Z" fill="#095AE5" fill-opacity="0.54"/>
<path d="M30.2627 41.32C30.5048 41.5317 30.711 41.744 30.8848 41.9449C31.0584 41.7441 31.2643 41.5319 31.5062 41.3202C32.521 40.4319 34.1307 39.5868 36.5243 39.5868C38.2594 39.5868 39.8074 40.2128 40.9133 41.4488C42.0113 42.676 42.5987 44.4195 42.5987 46.5289C42.5987 48.4914 41.8335 50.3382 40.761 51.9684C39.6868 53.6012 38.2704 55.069 36.8806 56.2919C35.4876 57.5178 34.0987 58.5174 33.06 59.2099C32.5399 59.5567 32.1054 59.8278 31.7995 60.0131C31.6465 60.1058 31.5255 60.1771 31.4418 60.2258C31.3999 60.2501 31.3674 60.2688 31.3448 60.2816L31.3186 60.2965L31.309 60.3019L31.3078 60.3026C31.1761 60.3764 31.03 60.4132 30.8838 60.4132C30.7377 60.4132 30.5915 60.3763 30.4598 60.3026L30.8838 60.4132L30.4586 60.3019L30.449 60.2965L30.4228 60.2816C30.4003 60.2688 30.3677 60.2501 30.3259 60.2258C30.2422 60.1771 30.1212 60.1058 29.9682 60.0131C29.6622 59.8278 29.2278 59.5567 28.7076 59.2099C27.6689 58.5174 26.28 57.5178 24.887 56.2919C23.4973 55.069 22.0808 53.6012 21.0066 51.9684C19.9341 50.3382 19.1689 48.4914 19.1689 46.5289C19.1689 44.8134 19.7784 43.1016 20.8266 41.8068C21.8799 40.5056 23.414 39.5868 25.2433 39.5868C27.6369 39.5868 29.2472 40.4318 30.2627 41.32Z" fill="white"/>
</svg>
