<svg width="50" height="100" viewBox="0 0 50 100" fill="none" xmlns="http://www.w3.org/2000/svg">
<path d="M50 50C50 77.6142 50 50 50 100C22.3858 100 0 77.6142 0 50C0 22.3858 22.3858 0 50 0C50 50 50 22.3858 50 50Z" fill="#095AE5" fill-opacity="0.8"/>
<path d="M19.9156 42.8843C20.8192 41.7681 22.0412 41.0827 23.4216 41.0827C25.6448 41.0827 27.0284 41.8524 27.8522 42.5729C28.2716 42.9398 28.557 43.3041 28.7344 43.57C28.8229 43.7027 28.8837 43.8095 28.92 43.878C28.9382 43.9122 28.9502 43.9367 28.9564 43.9497L28.9613 43.9602C29.1193 44.3207 29.4759 44.5539 29.87 44.5537C30.2641 44.5536 30.6205 44.3201 30.7782 43.9594L30.783 43.949C30.7893 43.936 30.8012 43.9115 30.8193 43.8774C30.8556 43.8089 30.9163 43.7021 31.0046 43.5695C31.1817 43.3037 31.4666 42.9394 31.8856 42.5727C32.7085 41.8524 34.0911 41.0827 36.3142 41.0827C37.8023 41.0827 39.0084 41.6069 39.852 42.5497C40.7045 43.5026 41.2729 44.9811 41.2729 47.0331C41.2729 48.7572 40.5978 50.4896 39.4991 52.1595C38.4024 53.8265 36.922 55.3722 35.4111 56.7018C33.9039 58.0281 32.3921 59.117 31.2548 59.8752C30.6871 60.2537 30.2151 60.5482 29.8868 60.747C29.8804 60.7509 29.8742 60.7547 29.8679 60.7585C29.8617 60.7547 29.8554 60.7509 29.8491 60.747C29.5208 60.5482 29.0488 60.2537 28.4811 59.8752C27.3437 59.117 25.8319 58.0281 24.3247 56.7018C22.8138 55.3722 21.3335 53.8265 20.2367 52.1595C19.1381 50.4896 18.463 48.7572 18.463 47.0331C18.463 45.5226 19.0061 44.0078 19.9156 42.8843ZM29.869 41.7942C29.6704 41.5646 29.4347 41.322 29.158 41.08C27.9975 40.065 26.1571 39.0992 23.4216 39.0992C21.331 39.0992 19.5778 40.1493 18.374 41.6363C17.176 43.1161 16.4795 45.0724 16.4795 47.0331C16.4795 49.2759 17.3539 51.3865 18.5797 53.2496C19.8073 55.1156 21.4261 56.7931 23.0144 58.1908C24.6064 59.5918 26.1938 60.7342 27.3808 61.5256C27.9753 61.9219 28.4718 62.2318 28.8214 62.4436C28.9963 62.5495 29.1346 62.631 29.2303 62.6866C29.2781 62.7144 29.3153 62.7357 29.341 62.7504L29.371 62.7675L29.382 62.7736L29.8679 62.9008L29.3834 62.7744C29.6844 62.943 30.0514 62.943 30.3525 62.7744L30.3539 62.7736L30.3648 62.7675L30.3948 62.7504C30.4206 62.7357 30.4577 62.7144 30.5056 62.6866C30.6012 62.631 30.7395 62.5495 30.9144 62.4436C31.264 62.2318 31.7605 61.9219 32.355 61.5256C33.5421 60.7342 35.1294 59.5918 36.7214 58.1908C38.3097 56.7931 39.9285 55.1156 41.1561 53.2496C42.3819 51.3865 43.2564 49.2759 43.2564 47.0331C43.2564 44.6222 42.585 42.6297 41.3301 41.2272C40.0663 39.8146 38.2972 39.0992 36.3142 39.0992C33.5787 39.0992 31.739 40.065 30.5792 41.0802C30.3028 41.3222 30.0674 41.5647 29.869 41.7942Z" fill="white"/>
</svg>
