<svg width="24" height="26" viewBox="0 0 24 26" fill="none" xmlns="http://www.w3.org/2000/svg">
<g filter="url(#filter0_d_57_60163)">
<path fill-rule="evenodd" clip-rule="evenodd" d="M13.5 4.50386C13.5 3.81977 12.6592 3.4928 12.197 3.99719L8.96927 7.52001C8.54308 7.98516 7.94119 8.25001 7.31032 8.25001H4.5C4.08579 8.25001 3.75 8.5858 3.75 9.00001V15C3.75 15.4142 4.08579 15.75 4.5 15.75H7.21921C7.83942 15.75 8.43212 16.006 8.85729 16.4575L12.204 20.0117C12.6695 20.5061 13.5 20.1766 13.5 19.4975V4.50386ZM11.0911 2.98386C12.4775 1.4707 15 2.45158 15 4.50386V19.4975C15 21.5348 12.5086 22.5232 11.1119 21.04L7.76524 17.4859C7.62352 17.3353 7.42595 17.25 7.21921 17.25H4.5C3.25736 17.25 2.25 16.2427 2.25 15V9.00001C2.25 7.75737 3.25736 6.75001 4.5 6.75001H7.31032C7.52061 6.75001 7.72124 6.66173 7.8633 6.50668L11.0911 2.98386ZM16.591 9.34836C16.8839 9.05547 17.3588 9.05547 17.6517 9.34836C17.9999 9.69658 18.2761 10.11 18.4645 10.5649C18.653 11.0199 18.75 11.5076 18.75 12C18.75 12.4925 18.653 12.9801 18.4645 13.4351C18.2761 13.89 17.9999 14.3034 17.6517 14.6517C17.3588 14.9446 16.8839 14.9446 16.591 14.6517C16.2981 14.3588 16.2981 13.8839 16.591 13.591C16.7999 13.3821 16.9657 13.134 17.0787 12.8611C17.1918 12.5881 17.25 12.2955 17.25 12C17.25 11.7045 17.1918 11.412 17.0787 11.139C16.9657 10.866 16.7999 10.618 16.591 10.409C16.2981 10.1161 16.2981 9.64126 16.591 9.34836ZM17.7247 5.35349C17.3576 5.16158 16.9045 5.30359 16.7126 5.67067C16.5207 6.03774 16.6627 6.49089 17.0298 6.68279C17.982 7.18062 18.7831 7.92504 19.3494 8.83828C19.9156 9.75152 20.2262 10.8001 20.2487 11.8744C20.2712 12.9487 20.0048 14.0093 19.4773 14.9454C18.9498 15.8816 18.1806 16.6589 17.25 17.1962C16.8913 17.4033 16.7684 17.862 16.9755 18.2207C17.1826 18.5794 17.6413 18.7023 18 18.4952C19.1632 17.8236 20.1247 16.852 20.7841 15.6818C21.4435 14.5116 21.7765 13.1858 21.7484 11.8429C21.7202 10.5001 21.332 9.18939 20.6242 8.04785C19.9164 6.9063 18.915 5.97577 17.7247 5.35349Z" fill="white"/>
</g>
<defs>
<filter id="filter0_d_57_60163" x="-2" y="0" width="28" height="28" filterUnits="userSpaceOnUse" color-interpolation-filters="sRGB">
<feFlood flood-opacity="0" result="BackgroundImageFix"/>
<feColorMatrix in="SourceAlpha" type="matrix" values="0 0 0 0 0 0 0 0 0 0 0 0 0 0 0 0 0 0 127 0" result="hardAlpha"/>
<feOffset dy="2"/>
<feGaussianBlur stdDeviation="1"/>
<feComposite in2="hardAlpha" operator="out"/>
<feColorMatrix type="matrix" values="0 0 0 0 0 0 0 0 0 0 0 0 0 0 0 0 0 0 0.25 0"/>
<feBlend mode="normal" in2="BackgroundImageFix" result="effect1_dropShadow_57_60163"/>
<feBlend mode="normal" in="SourceGraphic" in2="effect1_dropShadow_57_60163" result="shape"/>
</filter>
</defs>
</svg>
