<svg width="51" height="100" viewBox="0 0 51 100" fill="none" xmlns="http://www.w3.org/2000/svg">
<path d="M9.53674e-07 50C9.53674e-07 77.6142 9.53674e-07 50 9.53674e-07 100C28.1665 100 51 77.6142 51 50C51 22.3858 28.1665 0 9.53674e-07 0C9.53674e-07 50 9.53674e-07 22.3858 9.53674e-07 50Z" fill="#FF4538" fill-opacity="0.8"/>
<path fill-rule="evenodd" clip-rule="evenodd" d="M32.7071 42.6162C33.0976 42.2257 33.0976 41.5925 32.7071 41.202C32.3166 40.8115 31.6834 40.8115 31.2929 41.202L23 49.4949L14.7071 41.202C14.3166 40.8115 13.6834 40.8115 13.2929 41.202C12.9024 41.5925 12.9024 42.2257 13.2929 42.6162L21.5858 50.9091L13.2929 59.202C12.9024 59.5925 12.9024 60.2257 13.2929 60.6162C13.6834 61.0067 14.3166 61.0067 14.7071 60.6162L23 52.3233L31.2929 60.6162C31.6834 61.0067 32.3166 61.0067 32.7071 60.6162C33.0976 60.2257 33.0976 59.5925 32.7071 59.202L24.4142 50.9091L32.7071 42.6162Z" fill="white" stroke="white" stroke-width="0.916667" stroke-linecap="round" stroke-linejoin="round"/>
</svg>
