<svg width="50" height="100" viewBox="0 0 50 100" fill="none" xmlns="http://www.w3.org/2000/svg">
<path d="M50 50C50 77.6142 50 50 50 100C22.3858 100 0 77.6142 0 50C0 22.3858 22.3858 0 50 0C50 50 50 22.3858 50 50Z" fill="#095AE5" fill-opacity="0.8"/>
<path d="M29.158 41.08C29.4347 41.322 29.6704 41.5646 29.869 41.7942C30.0674 41.5647 30.3028 41.3222 30.5792 41.0802C31.739 40.065 33.5787 39.0992 36.3142 39.0992C38.2972 39.0992 40.0663 39.8146 41.3301 41.2272C42.585 42.6297 43.2564 44.6222 43.2564 47.0331C43.2564 49.2759 42.3819 51.3865 41.1561 53.2496C39.9285 55.1156 38.3097 56.7931 36.7214 58.1908C35.1294 59.5918 33.5421 60.7342 32.355 61.5256C31.7605 61.9219 31.264 62.2318 30.9144 62.4436C30.7395 62.5495 30.6012 62.631 30.5056 62.6866C30.4577 62.7144 30.4206 62.7357 30.3948 62.7504L30.3648 62.7675L30.3539 62.7736L30.3525 62.7744C30.202 62.8587 30.0349 62.9008 29.8679 62.9008C29.7009 62.9008 29.5339 62.8587 29.3834 62.7744L29.8679 62.9008L29.382 62.7736L29.371 62.7675L29.341 62.7504C29.3153 62.7357 29.2781 62.7144 29.2303 62.6866C29.1346 62.631 28.9963 62.5495 28.8214 62.4436C28.4718 62.2318 27.9753 61.9219 27.3808 61.5256C26.1938 60.7342 24.6064 59.5918 23.0144 58.1908C21.4261 56.7931 19.8073 55.1156 18.5797 53.2496C17.3539 51.3865 16.4795 49.2759 16.4795 47.0331C16.4795 45.0724 17.176 43.1161 18.374 41.6363C19.5778 40.1493 21.331 39.0992 23.4216 39.0992C26.1571 39.0992 27.9975 40.065 29.158 41.08Z" fill="white"/>
</svg>
