<svg width="24" height="26" viewBox="0 0 24 26" fill="none" xmlns="http://www.w3.org/2000/svg">
<g filter="url(#filter0_d_101_65413)">
<path fill-rule="evenodd" clip-rule="evenodd" d="M11.115 2.95964C12.5193 1.46916 15 2.47753 15 4.51074V9.93548C15 10.3496 14.6642 10.6853 14.25 10.6853C13.8358 10.6853 13.5 10.3496 13.5 9.93548V4.51074C13.5 3.81736 12.6677 3.49876 12.2069 3.98785L10.3249 5.98539C10.0409 6.28684 9.56627 6.30103 9.26475 6.0171C8.96323 5.73317 8.94903 5.25862 9.23303 4.95718L11.115 2.95964ZM3.59467 3.59424C3.88756 3.30142 4.36244 3.30142 4.65533 3.59424L20.0303 18.9654C20.3232 19.2582 20.3232 19.733 20.0303 20.0258C19.7374 20.3186 19.2626 20.3186 18.9697 20.0258L15 16.0571V19.4842C15 21.5306 12.4924 22.5317 11.0976 21.0166L7.92162 17.6404C7.80512 17.5134 7.68324 17.4035 7.56847 17.3299C7.45032 17.254 7.38676 17.2462 7.37157 17.2462H4.5C3.25887 17.2462 2.25 16.2453 2.25 14.9968V8.99831C2.25 7.74985 3.25887 6.74887 4.5 6.74887H5.68943L3.59467 4.65463C3.30178 4.36181 3.30178 3.88706 3.59467 3.59424ZM7.18943 8.24849H4.5C4.08428 8.24849 3.75 8.58108 3.75 8.99831V14.9968C3.75 15.414 4.08428 15.7466 4.5 15.7466H7.37157C7.77545 15.7466 8.12138 15.9026 8.37898 16.068C8.6382 16.2344 8.85704 16.4417 9.02411 16.6235L12.2 19.9995C12.6574 20.4985 13.5 20.1827 13.5 19.4842V14.5575L7.18943 8.24849ZM16.7126 5.66979C16.9045 5.30281 17.3577 5.16084 17.7247 5.35269C18.9151 5.97482 19.9164 6.90511 20.6242 8.04638C21.332 9.18764 21.7202 10.498 21.7484 11.8405C21.7765 13.1831 21.4435 14.5085 20.7841 15.6784C20.7189 15.7942 20.6507 15.908 20.5796 16.0197C20.3574 16.3692 19.8939 16.4725 19.5443 16.2503C19.1948 16.0282 19.0915 15.5648 19.3137 15.2153C19.3705 15.1259 19.4251 15.0349 19.4773 14.9422C20.0048 14.0063 20.2712 12.946 20.2487 11.8719C20.2262 10.7979 19.9156 9.74962 19.3494 8.83661C18.7831 7.9236 17.982 7.17937 17.0298 6.68166C16.6627 6.48981 16.5207 6.03678 16.7126 5.66979ZM16.5909 9.34661C16.8838 9.05379 17.3587 9.05379 17.6516 9.34661C17.9998 9.69474 18.2761 10.108 18.4645 10.5629C18.653 11.0178 18.75 11.5053 18.75 11.9976C18.75 12.4899 18.653 12.9774 18.4645 13.4323C18.4255 13.5265 18.3827 13.6189 18.3363 13.7093C18.1472 14.0777 17.6951 14.2231 17.3266 14.034C16.9581 13.845 16.8127 13.393 17.0018 13.0246C17.0296 12.9704 17.0553 12.9149 17.0787 12.8584C17.1918 12.5855 17.25 12.293 17.25 11.9976C17.25 11.7022 17.1918 11.4097 17.0787 11.1368C16.9656 10.8639 16.7999 10.6159 16.5909 10.407C16.2981 10.1142 16.2981 9.63943 16.5909 9.34661Z" fill="white"/>
</g>
<defs>
<filter id="filter0_d_101_65413" x="-2" y="0" width="28" height="28" filterUnits="userSpaceOnUse" color-interpolation-filters="sRGB">
<feFlood flood-opacity="0" result="BackgroundImageFix"/>
<feColorMatrix in="SourceAlpha" type="matrix" values="0 0 0 0 0 0 0 0 0 0 0 0 0 0 0 0 0 0 127 0" result="hardAlpha"/>
<feOffset dy="2"/>
<feGaussianBlur stdDeviation="1"/>
<feComposite in2="hardAlpha" operator="out"/>
<feColorMatrix type="matrix" values="0 0 0 0 0 0 0 0 0 0 0 0 0 0 0 0 0 0 0.25 0"/>
<feBlend mode="normal" in2="BackgroundImageFix" result="effect1_dropShadow_101_65413"/>
<feBlend mode="normal" in="SourceGraphic" in2="effect1_dropShadow_101_65413" result="shape"/>
</filter>
</defs>
</svg>
